<svg xmlns="http://www.w3.org/2000/svg" width="32" height="32" fill="none" viewBox="0 0 32 32">
  <rect width="32" height="32" rx="16" fill="#000"/>
  <path d="M20.5,18.1c-.1-1.6,1.3-2.4,1.4-2.5-0.8-1.2-2-1.4-2.4-1.4-1-0.1-2,.6-2.5,.6-.5,0-1.3-0.6-2.1-0.6-1.1,0-2.1,.6-2.6,1.5-1.1,1.8-.3,4.5,.8,6 .5,.7,1.1,1.4,2,1.4,.8,0,1.1-.5,2-0.5,.8,0,1.1,.5,2,.5,.8,0,1.3-.7,1.8-1.4,.5-.7,.7-1.4,.7-1.4C22.4,21,20.5,18.1,20.5,18.1ZM18.1,13.1c.5-.6,.8-1.4,.7-2.2-.7,0-1.6,.5-2.1,1.1-.5,.6-.8,1.4-.7,2.2C16.7,14.2,17.6,13.7,18.1,13.1Z" fill="#fff"/>
</svg>
